<svg xmlns="http://www.w3.org/2000/svg" width="200" height="200" viewBox="0 0 200 200">
  <defs>
    <linearGradient id="grad1" x1="0%" y1="0%" x2="100%" y2="100%">
      <stop offset="0%" style="stop-color:#2563eb;stop-opacity:1" />
      <stop offset="100%" style="stop-color:#3b82f6;stop-opacity:1" />
    </linearGradient>
  </defs>
  <circle cx="100" cy="100" r="95" fill="url(#grad1)" />
  <circle cx="100" cy="100" r="85" fill="#FFFFFF" fill-opacity="0.2" />
  
  <!-- Brain Icon -->
  <g transform="translate(50, 45) scale(0.8)" fill="#FFFFFF">
    <path d="M90,75 C90,90 80,100 65,100 L35,100 C20,100 10,90 10,75 C10,65 15,55 25,50 C20,45 18,40 18,35 C18,25 25,18 35,18 C35,10 40,5 50,5 C60,5 65,10 65,18 C75,18 82,25 82,35 C82,40 80,45 75,50 C85,55 90,65 90,75 Z" fill="#FFFFFF" />
    <path d="M50,25 C45,25 45,35 40,35 C35,35 35,25 30,25" fill="none" stroke="#3b82f6" stroke-width="3" stroke-linecap="round" />
    <path d="M50,25 C55,25 55,35 60,35 C65,35 65,25 70,25" fill="none" stroke="#3b82f6" stroke-width="3" stroke-linecap="round" />
    <path d="M30,55 C40,50 60,50 70,55" fill="none" stroke="#3b82f6" stroke-width="3" stroke-linecap="round" />
    <path d="M35,75 C45,80 55,80 65,75" fill="none" stroke="#3b82f6" stroke-width="3" stroke-linecap="round" />
    <path d="M40,65 L40,85" fill="none" stroke="#3b82f6" stroke-width="2" stroke-linecap="round" />
    <path d="M50,60 L50,90" fill="none" stroke="#3b82f6" stroke-width="2" stroke-linecap="round" />
    <path d="M60,65 L60,85" fill="none" stroke="#3b82f6" stroke-width="2" stroke-linecap="round" />
  </g>
  
  <!-- Sparkles -->
  <circle cx="130" cy="60" r="3" fill="#FFFFFF" />
  <circle cx="140" cy="90" r="2" fill="#FFFFFF" />
  <circle cx="65" cy="50" r="2" fill="#FFFFFF" />
  <circle cx="45" cy="120" r="3" fill="#FFFFFF" />
</svg> 