<svg xmlns="http://www.w3.org/2000/svg" width="200" height="200" viewBox="0 0 200 200">
  <defs>
    <linearGradient id="grad1" x1="0%" y1="0%" x2="100%" y2="100%">
      <stop offset="0%" style="stop-color:#39817c;stop-opacity:1" />
      <stop offset="100%" style="stop-color:#4db5b0;stop-opacity:1" />
    </linearGradient>
  </defs>
  <circle cx="100" cy="100" r="95" fill="url(#grad1)" />
  <circle cx="100" cy="100" r="85" fill="#FFFFFF" fill-opacity="0.2" />
  
  <!-- Light Bulb Icon -->
  <g transform="translate(50, 45) scale(1)" fill="#FFFFFF">
    <path d="M50,20 C35,20 25,35 25,50 C25,65 35,70 40,75 C40,75 40,80 40,85 L60,85 C60,80 60,75 60,75 C65,70 75,65 75,50 C75,35 65,20 50,20 Z" fill="#FFFFFF" />
    <rect x="40" y="85" width="20" height="5" rx="2" fill="#FFFFFF" />
    <rect x="40" y="90" width="20" height="5" rx="2" fill="#FFFFFF" />
    <rect x="43" y="95" width="14" height="5" rx="2" fill="#FFFFFF" />
  </g>
  
  <!-- Sparkles -->
  <circle cx="120" cy="60" r="4" fill="#FFFFFF" />
  <circle cx="130" cy="80" r="3" fill="#FFFFFF" />
  <circle cx="70" cy="50" r="3" fill="#FFFFFF" />
</svg> 